<?xml version="1.0" encoding="UTF-8" standalone="no"?><svg xmlns:svg="http://www.w3.org/2000/svg" xmlns="http://www.w3.org/2000/svg" xmlns:xlink="http://www.w3.org/1999/xlink" version="1.0" width="64px" height="64px" viewBox="0 0 128 128" xml:space="preserve"><g><path fill="#000" d="M64,128a64,64,0,1,1,64-64A64,64,0,0,1,64,128ZM64,4a60,60,0,1,0,60,60A60,60,0,0,0,64,4Z"/><path fill="#000" d="M99.716,51a38.013,38.013,0,0,0-71.433,0H10.56A55,55,0,0,1,117.44,51H99.716ZM28.284,77a38.013,38.013,0,0,0,71.433,0H117.44A55,55,0,0,1,10.56,77H28.284Z"/><animateTransform attributeName="transform" type="rotate" values="0 64 64;360 64 64" dur="2700ms" repeatCount="indefinite"></animateTransform><animate attributeName="opacity" dur="2700ms" begin="0s" repeatCount="indefinite" keyTimes="0;0.5;1" values="1;0.3;1"/></g></svg>